<svg width="20.000000" height="17.655273" viewBox="0 0 20 17.6553" fill="none" xmlns="http://www.w3.org/2000/svg">
	<desc>
			Created with Pixso.
	</desc>
	<defs/>
	<path id="Vector" d="M0.16 17.03C0.27 17.22 0.43 17.37 0.62 17.48C0.81 17.59 1.03 17.65 1.25 17.65L18.75 17.65C18.96 17.65 19.18 17.59 19.37 17.48C19.56 17.37 19.72 17.22 19.83 17.03C19.94 16.84 20 16.62 20 16.4C20 16.18 19.94 15.97 19.83 15.78L11.08 0.62C10.97 0.43 10.81 0.27 10.62 0.16C10.43 0.05 10.21 0 10 0C9.78 0 9.56 0.05 9.37 0.16C9.18 0.27 9.02 0.43 8.91 0.62L0.16 15.78C0.05 15.97 0 16.18 0 16.4C0 16.62 0.05 16.84 0.16 17.03ZM10 3.75L16.58 15.15L3.41 15.15L10 3.75Z" fill="#2563EB" fill-opacity="1.000000" fill-rule="nonzero"/>
</svg>
