<svg width="10.666748" height="10.666504" viewBox="0 0 10.6667 10.6665" fill="none" xmlns="http://www.w3.org/2000/svg">
	<desc>
			Created with Pixso.
	</desc>
	<defs/>
	<path id="Vector" d="M5.33 0C7.02 0 8.39 1.34 8.39 3C8.39 4.66 7.02 6.01 5.33 6.01C3.64 6.01 2.27 4.66 2.27 3C2.27 1.34 3.64 0 5.33 0ZM5.33 0.78C4.08 0.78 3.07 1.77 3.07 3C3.07 4.23 4.08 5.22 5.33 5.22C6.58 5.22 7.59 4.23 7.59 3C7.59 1.77 6.58 0.78 5.33 0.78ZM0.4 10.66C0.34 10.66 0.27 10.65 0.2 10.61C0.01 10.5 -0.06 10.26 0.05 10.07C1.12 8.22 3.15 7.05 5.33 7.05C7.51 7.05 9.53 8.22 10.61 10.07C10.72 10.26 10.65 10.5 10.46 10.61C10.28 10.71 10.03 10.65 9.92 10.47C8.97 8.84 7.22 7.84 5.33 7.84C3.44 7.84 1.68 8.84 0.75 10.47C0.68 10.6 0.54 10.66 0.4 10.66Z" fill="#94A3B8" fill-opacity="1.000000" fill-rule="evenodd"/>
</svg>
